<?xml version="1.0" encoding="utf-8"?>
<!-- Generator: Adobe Illustrator 18.0.0, SVG Export Plug-In . SVG Version: 6.00 Build 0)  -->
<!DOCTYPE svg PUBLIC "-//W3C//DTD SVG 1.1//EN" "http://www.w3.org/Graphics/SVG/1.1/DTD/svg11.dtd">
<svg version="1.1" id="Layer_1" xmlns="http://www.w3.org/2000/svg" xmlns:xlink="http://www.w3.org/1999/xlink" x="0px" y="0px"
	 viewBox="0 0 797.9 610.4" enable-background="new 0 0 797.9 610.4" xml:space="preserve">
<g>
	<rect x="67.1" y="250.8" fill="none" width="467.6" height="213.5"/>
	<g>
		<path fill="#FFFFFF" d="M139.9,261.7c14.6,0,26.5-7.1,34.3-17.6c2.8,2.1,7,3.2,10.9,3.2c5.7,0,11-2.9,15.2-6.7
			c0.2,0,0.5,0.1,0.8,0.1c4-4.5,6.8-8.7,10.5-15.9c2.7,1.1,4,1.8,4,3.3c0,3.2-5.9,13.5-5.9,21.5c0,6.9,4.1,10.2,11.5,10.2
			c6.5,0,16.1-7.2,23.1-14.8c1.7,9.1,7.4,13.5,15.4,13.5c15.4,0,35-24.4,35-62.1c0-18.3-9.1-29.7-22.8-29.7
			c-10.8,0-15.6,5.8-15.6,11.5c0,1.5,0.5,3,1.6,4c11.4,0.7,19,7.9,19,21.9c0,19.6-7.4,38.6-12.5,38.6c-2.4,0-3.6-1.2-3.6-5.3
			c0-8.6,3.9-21.5,12.7-27.2c0.1-0.5,0.1-1,0.1-1.5c0-3.2-1.8-5.2-5.6-5.2c-8.4,0-20.6,13.2-23.7,28.3c-5.7,7.4-12,12.6-14.8,12.6
			c-1.6,0-2.1-1.2-2.1-2.9c0-3,2.4-9,5.2-14.6c1.9-3.9,3.3-6.8,3.3-9.2c0-2.9-1.5-4.6-8.6-6.7c-2.1-0.6-4.4-1.5-5.7-2.2
			c1.6-2.7,4.1-4.5,7-6.1c0.2-0.7,0.4-1.6,0.4-2.4c0-3.3-2.8-5.2-6.9-5.2c-6.8,0-19.5,12-19.5,20.5c0,2.3,0.8,3.9,1.8,5
			c-0.1,0.4-0.3,0.7-0.5,1c-0.3-0.1-0.6-0.1-0.9-0.1c-4.9,8-10.4,12-14.7,12c-2.2,0-4.9-0.7-6.3-1.8c9.9-16.4,14.4-37.5,14.4-49
			s-6.3-22.4-18.6-22.4c-4.2,0-7.8,1.3-10.6,3.1c-0.3-4.6-3.4-8.1-8-8.1c-21.7,0-50.8,36.7-50.8,69.7
			C108.5,249.6,119.6,261.7,139.9,261.7z M170.5,180.2c6.7,0.7,8,4.5,8,10.8c0,4.3-2.4,18.8-7.1,28.3c-2.2-5.5-3.1-11.9-3.1-18.5
			C168.3,193.5,169.4,186.2,170.5,180.2z M160.3,170.4c-5.3,10.1-8.1,20.3-8.1,33.6c0,12.9,3.6,22.7,9.5,29.8
			c-3.4,4.9-8.8,7.3-14.3,7.3c-9.1,0-13.9-8.5-13.9-21.1C133.6,197.7,146.9,179.2,160.3,170.4z"/>
		<path fill="#FFFFFF" d="M311.1,258.3c12,0,26.5-11.1,32.8-20.4c2.9-3.6,5.3-7.5,8.3-13.2c2.7,1.1,4,1.8,4,3.3
			c0,3.2-5.9,13.5-5.9,21.5c0,6.9,4.1,10.2,11.5,10.2c5.7,0,14-5.7,20.7-12.3c-0.2,0.6-0.4,1.2-0.6,1.8c-6.8,20.3-7.4,23.4-7.4,28
			c0,6.7,3.9,10.5,12.1,10.5c16,0,34.4-30.8,34.4-52.6c0-8.5-3.2-14.6-7.8-17.1c2.4,0.2,4.9,0.4,7.6,0.4c4,0,7-3.5,7-8.1
			c0-1.8-0.8-4-2.3-5.1c-1.6,0.4-12.6,0.8-16.4,1c6.4-11.2,9.1-17,9.1-20.9c0-7.6-7.5-15.2-13.9-15.2c-6.2,0-8.1,2.2-9.8,19
			c-0.5,5-1.3,13.3-1.8,17.6c-2.7,0.2-5.2,3.9-5.2,7.3c0,1.9,1.1,2.9,3.4,3c-0.5,2.5-1.3,5.9-2.3,9.7c0,0-0.1,0-0.1,0
			c-6.4,10.1-14.9,17.6-18.3,17.6c-1.6,0-2.1-1.2-2.1-2.9c0-3,2.4-9,5.2-14.6c1.9-3.9,3.3-6.8,3.3-9.2c0-2.9-1.5-4.6-8.6-6.7
			c-2.1-0.6-4.4-1.5-5.7-2.2c1.6-2.7,4.1-4.5,7-6.1c0.2-0.7,0.4-1.6,0.4-2.4c0-3.3-2.8-5.2-6.9-5.2c-6.8,0-19.5,12-19.5,20.5
			c0,2.3,0.8,3.9,1.8,5c-1.3,3.2-2.7,5.6-4.4,8c-6.9,9.2-16.5,15.1-24.1,15.1c-4.7,0-5.8-3-5.8-8.5c16.6-3.8,22.6-11.6,22.6-21.8
			c0-8.5-4.6-12.5-13-12.5c-11.8,0-26.7,18.7-26.7,37C293.8,250.9,299.3,258.3,311.1,258.3z M405.2,225.7c2.2,1.8,3.6,6.1,3.6,11.8
			c0,13.1-10.1,34.3-14.7,34.3c-0.8,0-1.5-0.4-1.5-1.2c0-0.2,0.1-0.7,0.2-1.1C395.5,263.2,402.6,242.5,405.2,225.7z M317.4,213.5
			c1.5,0,2.4,1.5,2.4,4c0,3.6-1.5,7.4-8.2,8.6C312.5,217.7,315.7,213.5,317.4,213.5z"/>
		<path fill="#FFFFFF" d="M432.6,243.4c2.7,9.7,5.3,20.7,5.3,24.6c0,3.2-1,4.6-2.8,4.6c-1.9,0-4.1-4.2-5-11.5
			c-0.8-0.2-2.3-0.6-3.2-0.6c-5.5,0-8.9,5.5-8.9,11.4c0,8.5,6.8,13.8,15.3,13.8c11,0,20.6-8,20.6-24.1c0-2.4-0.1-8.5-0.6-11.9
			c15-13.9,20.7-27.2,20.7-34.8c0-7.3-3.6-14.2-10.4-14.2c-3,0-7.2,2.1-8,6.1c1.5,2.5,3.8,9.1,3.8,11.6c0,5.6-1.1,8.5-9.3,19
			c-2.4-9.8-3-14.1-3-18.8c2.9-3.2,5.7-8.2,5.7-11.9s-2.3-5.3-6.9-5.3c-9.1,0-17.6,9.6-17.6,20.3c0,3.2,0.2,6.2,0.8,9.1
			C429.9,233.7,430.3,235.1,432.6,243.4z"/>
		<path fill="#FFFFFF" d="M630.6,252.2c-5.4,0.3-14.2,0.8-19.8,0.8c-2.8,3.6-4.1,7.5-4.1,12.4c0,6.2,1.3,10,3.9,13.4
			c-3.1-1.5-6.2-5.7-6.7-12.4c-3.9,0-9.5,0.8-13.1,1.3c-2.1,2.6-3.1,5.2-3.1,10.3c0,9.3,4.9,15.2,16,15.2c13.4,0,21.9-3.1,26.8-9.8
			h3.1c12.6,0,22.7-4.4,22.7-17.8c0-4.9-1.5-10.6-4.6-14.7C647,251.5,639.1,252,630.6,252.2z"/>
		<path fill="#FFFFFF" d="M719.2,179.3c-14.4-2.6-26.8-2.8-44.8-2.8c-22.2,0-46.6,5.2-63.6,10c0,3.1,1,14.9,2.6,22.2
			c-3.3-5.7-5.7-15.7-5.9-22.9c-9.8-2.6-17.3-8-22.9-14.7c10.3,7.5,21.4,10.8,28.6,10.8c15.2-7.5,23.7-17.8,23.7-35
			c0-10.6-10.6-18.8-25.5-18.8c-4.1,0-7.2,0.3-10,1.3c-5.2,12.6-14.9,23.4-30.7,29.1c-9.3,8.5-16,20.9-21.4,40.5
			c-0.8,3.1-1,10.8-1,13.1c0,9,4.6,19.6,14.4,24.2c-0.8,0.3-1.3,0.3-2.3,0.3c-6.7,0-14.9-9.3-14.9-23.7c0-1.3,0-4.6,0.5-6.7
			l-3.6-0.3c-6.2,4.4-12.4,27.1-12.4,43.8c0,8.8,0.3,21.1,2.8,33.8c-2.8-4.9-5.9-17.5-5.9-35.8c0-24.7,8.2-43,14.2-46.4
			c0-2.6-7.2-7.7-26.5-7.7c-47.9,0-29.7,64.3-29.7,74.7c0,10.9-9.1,16.4-24.1,20c-11.9,1.3-27.3,2.2-47.5,2.2
			c-80.9,0-143.4-21.6-190.3-18.6c-84.7,5.5-114.7,39.7-118.7,56.5c-7.1,30.2,9,41.5,20.7,44.4c-0.6,1.1-1,2.4-1,3.5
			c0,5.8,3.3,9.2,8.9,9.2c5.2,0,9.1-2.8,15.5-12c2.9-0.1,6.7-0.3,9.2-0.6c-0.2,2.8-0.2,3.6-0.2,5.4c0,3.3,1.5,4.9,5,4.9
			c3.3,0,8.3-3.6,11.7-7.3c0.2,3.3,2.5,6.1,5.6,6.1c1.3,0,1.7-0.2,2.3-0.7c0.2-3.9,0.5-6.5,1.3-10.9c2.2-3.1,4.1-4,4.6-4
			c0.5,0,0.7,0.2,0.7,0.7c0,1.3-2.9,7.1-2.9,10.8c0,3.2,1.1,4.6,4.5,4.6c3.7,0,9.6-4.8,12.8-8.9c0.1,0.2,0.1,0.4,0.2,0.6
			c1.7,6.4,2.2,7.9,2.6,10.1c-3.3,3.6-4.4,6.4-4.4,8.1c0,1.9,0.9,3.4,3.7,3.4c5.4,0,8.9-5.4,8.9-11.4c0-1.1-0.2-3.4-0.5-5.3
			c1.1-1,2.7-2.5,3.4-3.6c1,1.2,2.5,1.6,4.1,1.6c1.7,0,3.6-0.8,5.2-2c0,0,0,0.1,0,0.1c0,5.3,3,7.6,7.4,7.6c3.5,0,7.7-3,10.8-6.2
			c0.3,2.8,2.7,5.6,5.8,5.6c1.1,0,2.1-0.2,2.6-0.8c0.1-5.3,0.5-9.6,1-13.7c1.5-1.3,2.9-1.9,3.9-1.9c0.6,0,0.8,0.5,0.8,0.9
			c0,1.3-3,7.9-3,11.6c0,3.2,1.1,4.6,4.5,4.6c3,0,7.5-3.3,10.8-6.8c-0.1,0.6-0.1,1.2-0.1,1.8c0,3.2,1.1,4.6,4.5,4.6
			c3,0,7.3-3.2,10.4-6.6c0.3,3.2,2.5,6,5.6,6c1.3,0,1.7-0.2,2.3-0.7c0.2-3.9,0.5-6.5,1.3-10.9c2.2-3.1,4.1-4,4.6-4
			c0.5,0,0.7,0.2,0.7,0.7c0,1.3-2.9,7.1-2.9,10.8c0,3.2,1.1,4.6,4.5,4.6c3,0,7.4-3.1,10.6-6.5c0.7,3.3,2.8,4.8,5.5,4.8
			c2.7,0,5.2-2.8,6-4.2c-0.4,4.3-0.9,8.1-1,9.5c-0.2,1.7-0.7,2.2-1.6,2.2c-1.8,0-4.4-2.9-6.8-6.5c-2.9,0.2-4.7,2.8-4.7,5.1
			c0,4.5,5.6,7.9,10.2,7.9c4.5,0,9.5-2.6,10.6-10.4c1-6.8,1.4-14.4,2.5-19.5c0.9-4.2,1.9-6.2,1.9-8.5c0-2-2.8-4.6-6.4-4.6
			c-0.6,0-1.7,0.3-2.2,0.8c0,1.4-0.1,3.7-0.3,5.8c-0.3-0.3-0.7-0.4-1.5-0.4c-4.5,0-10.2,5.5-11.9,11.9c-2.9,3.6-5.5,5.6-6.5,5.6
			c-0.5,0-0.8-0.2-0.8-0.9c0-1.4,1.8-5.5,2.9-8c1.2-2.8,1.7-4.8,1.7-6.3c0-2.2-1.3-4-4-4c-2.5,0-6.5,2.6-10.7,9.8
			c1.5-2.8,2.3-6.8,2.3-8.3c0-1.7-0.5-2.4-2.5-2.4c-3.6,0-8.7,6-8.7,9.4c0,1,0.1,2.1,0.4,3.1c-3.6,4.9-6,6.6-6.7,6.6
			c-0.5,0-0.8-0.2-0.8-0.9c0-1.3,0.7-3.2,2.3-7.1c1-2.4,2-4.8,2-6.3c0-2.2-0.2-3.7-2.9-3.7c-3.6,0-8.7,6-8.7,9.4
			c0,0.7,0,1.4,0.2,2.1c-3.6,4.9-6.9,7.5-7.9,7.5c-0.5,0-0.8-0.2-0.8-0.9c0-1.4,1.9-6.1,2.9-8.6c0.9-2.2,1.4-4,1.4-5.7
			c0-2-1.1-3.4-3.3-3.4c-2.2,0-5.8,1.8-9.9,5.6l1.4-5.4c4.5-7.4,5.7-10.7,5.7-13.2c0-2.9-1.3-4.1-3.7-4.1c-7,0-9.5,8.3-11.7,27.5
			c-3.9,5.4-7.8,8.1-10.1,8.1c-1.2,0-1.5-0.6-1.5-2c0-0.9,0.5-4.1,2-10.4c1.7,0.3,2.9,0.3,4.2,0.3c1.9,0,3.3-1.7,3.3-3.8
			c0-0.9-0.4-1.9-1.1-2.4c-0.7,0.2-3.2,0.3-4.9,0.4c3-6.1,3.7-7.5,3.7-9.2c0-2.5-1.2-3.4-3.8-3.4c-3.9,0-7,3.6-7.5,8.7
			c-0.2,2.1-0.3,3-0.3,4.2c-2.3,0.1-3.6,1.7-3.6,3.4c0,1.3,1,1.4,2.1,1.5c-0.6,1.9-1,3.5-1.4,4.9c-1.4,2.2-3.2,4.2-4.9,4.2
			c-0.7,0-1.5-0.7-1.8-1.7c2.1-3.3,3-5.7,3-7.8c0-2.4-2.4-5.9-4.9-5.9c-1.5,0-2.3,0.9-3.1,3.3c-0.9,2.4-1.3,5.9-1.3,8.7
			c0,0.7,0.1,1.4,0.1,2c-0.4,0.7-1.5,2.1-2.6,3.2c-1.1-4.2-1.7-7.4-1.7-8.8c0-3,0.6-4.9,3.4-6.9c0-1.8-1-2.9-3.5-2.9
			c-4,0-8.9,4.2-8.9,9.9c0,1.5,0.1,2.7,0.4,4c-3.2,4.2-6.2,6.6-7.2,6.6c-0.5,0-0.8-0.2-0.8-0.9c0-1.4,1.8-5.5,2.9-8
			c1.2-2.8,1.7-4.8,1.7-6.3c0-2.2-1.3-4-4-4c-2.5,0-6.5,2.6-10.7,9.8c1.5-2.8,2.3-6.8,2.3-8.3c0-1.7-0.5-2.4-2.5-2.4
			c-3.6,0-8.7,6-8.7,9.4c0,1,0.1,2.1,0.4,3.1c-3.9,5.3-7,6.9-7.8,6.9c-0.9,0-0.9-1.3-0.9-3.8c1.4-1.2,2.5-3,2.5-4.6
			c0-1.7-0.9-2.5-2.2-2.8c0.3-5,0.7-11.2,1.5-15.4c4.5-2.9,5.4-3.8,5.4-5c-0.2-1.8-1.8-3.8-4.9-3.8c-4.8,0-7.6,3.7-8.7,8.1
			c-5.8,8.3-11.9,17.3-15.2,21.6c-4.1,0.2-12.1-0.5-13.8-1.5c-6.4-4.1-17.4-11.6-13.1-33.3c4-20,43.4-35,106.4-35
			c52.7,0,153.6,23,203.4,23c2,0,3.9,0,5.8-0.1c0,0,0,0,0.1,0c13.9,0,43.7-2.3,68.8-8.9c22.4-6,40.8-15.9,43.9-24.4
			c6.7,2.6,17,3.9,24.2,3.9c7.7,0,15.2-1.5,19.1-3.1c-3.1-2.6-4.6-7-4.6-12.1c0-4.4,1-9,4.4-12.9c4.6-0.8,9.3-1,14.2-1
			c0.5-5.2,2.6-10.6,5.7-13.7c12.6,0,40.2-0.8,48.7-1.5c5.2-3.1,14.2-11.3,18.3-16.7c-2.3,6.2-7.5,15.2-16.7,19.3
			c1.5,7,3.9,13.9,4.4,20.9c5.2,2.3,8.2,3.1,13.9,3.1c12.6,0,22.7-9.5,22.7-23.7c0-7.7-5.2-17.5-13.4-22.2c-8-4.4-18-6.7-33-7
			c-3.4,1.8-10.6,6.4-14.9,13.7c2.6-8.2,10-14.9,15.2-17c0,0,16.2,1.5,23.4,1.8c5.4-6.7,10.8-19.1,12.9-27.6c0,9-2.8,21.1-8.2,28.9
			c5.2,2.6,11.6,4.4,20.4,4.4c15.7,0,27.8-8,27.8-24.2C730.8,193,725.9,184.7,719.2,179.3z M325.8,362c-0.5,2.7-1,7.5-1.4,10.9
			c-0.8,0.8-1.4,1.1-2.3,1.1c-0.8,0-1.4-0.3-1.4-2.4C320.6,368.5,322.5,363.8,325.8,362z M159.4,355.4c-0.7,3.3-1.3,9.7-1.6,12.7
			c-1.5,0.2-4,0.3-5.9,0.5C153.7,365.4,157.5,358.9,159.4,355.4z M134.9,377.9c-1.3,0-2.2-0.9-2.2-2.7c0-0.3,0.1-0.9,0.2-1.3
			c2.3,0,4.9,0,8.1-0.1C138.3,376.9,136.8,377.9,134.9,377.9z"/>
		<path fill="#FFFFFF" d="M280.2,347.7c0,3.3,1.6,5,3.8,5c2.8-3.4,3.8-5.6,3.8-7c0-1.8-2.6-4.3-4.9-4.3
			C281.2,341.4,280.2,343,280.2,347.7z"/>
		<path fill="#FFFFFF" d="M344,372.2c-3.2,0-6.1,1.9-6.1,4.8c0,3,1.9,5.7,4.6,5.7c3.1,0,5.4-4.7,5.4-8
			C348,373.3,346.6,372.2,344,372.2z"/>
		<path fill="#FFFFFF" d="M374.5,339.4c-10.6,0-15.4,5.6-15.4,9.3c0,1.8,1,3.4,2.8,3.4c3.4-2.6,6.2-3.6,10.1-3.6
			c1.1,0,1.4,0,2.3,0.1c-1.4,6.5-5,19.7-7.7,24.7c-2.1-0.2-3.3-0.3-4.8-0.3c-1.8,0-2.6,1.3-2.6,2.8c0,2.4,1.4,6.1,4,6.1
			c1.5,0,3-0.6,5.3-2.5c5,2.4,8.9,3.5,12.4,3.5c11.2,0,17.5-9.3,17.5-19.7C398.5,350.1,390.3,339.4,374.5,339.4z M381.2,376.4
			c-2.2,0-4.5-0.6-8.2-1.6c2.5-4.1,5.8-13.6,8-24.1c5.7,3.2,8.4,8.8,8.4,14.4C389.4,371.2,387,376.4,381.2,376.4z"/>
		<path fill="#FFFFFF" d="M449.9,352.6c2.8-3.4,3.8-5.6,3.8-7c0-1.8-2.6-4.3-4.9-4.3c-1.8,0-2.8,1.7-2.8,6.3
			C446.1,351,447.7,352.6,449.9,352.6z"/>
		<path fill="#FFFFFF" d="M469.7,355.1c-1.4,0-2.4,0.5-2.9,1.2c0.2,1.2,0.3,3.4,0.3,4.4c0,8.1-3.7,14.4-6.1,14.4
			c-1.3,0-1.8-0.8-1.8-3c0-4.2,2.2-9.4,5.9-12.8c0.1-0.2,0.1-0.5,0.1-0.7c0-2.3-1.9-3.2-4.2-3.2c-4.5,0-8.1,3.1-8.2,6
			c0,1,0.2,2.3,1.7,3c-1,1.4-1.7,2.8-2.3,4.3c-3.2,4.3-5.4,5.8-6.2,5.8c-0.5,0-0.8-0.2-0.8-0.9c0-1.3,0.7-3.2,2.3-7.1
			c1-2.4,2-4.8,2-6.3c0-2.2-0.2-3.7-2.9-3.7c-3.6,0-8.7,6-8.7,9.4c0,0.6,0,1.3,0.1,2c-2.9,4.3-6,7.3-7.7,7.3c-0.5,0-0.8-0.2-0.8-0.9
			c0-1.4,2.7-11.4,4.2-17c4.3-8.1,5.4-10.9,5.4-13.4c0-2.9-1.5-4.1-4-4.1c-4.5,0-8.6,4.6-9.6,12.4c-0.5,3.9-1.5,9.3-2.2,13
			c-0.1,0.8-0.4,2-0.8,3.5c-3.2,4.1-7.6,6.7-11,6.7c-2.2,0-2.8-1.4-2.8-4c7.9-1.8,10.7-5.5,10.7-10.3c0-4-2.2-5.9-6.1-5.9
			c-5.6,0-12.6,8.8-12.6,17.5c0,6.2,2.6,9.7,8.2,9.7c4.1,0,8.8-2.8,12.3-5.9c-0.1,0.6-0.1,1.2-0.1,1.8c0,3,1.2,4.4,4.5,4.4
			c3.3,0,7.7-2.9,10.9-6.2c-0.1,0.5-0.1,1.1-0.1,1.6c0,3.2,1.1,4.6,4.5,4.6c2.9,0,7-3,10.1-6.2c0.7,4.2,3.6,6,7.4,6
			c7.5,0,15.9-9.4,15.9-21.7C474.5,357.7,473.3,355.1,469.7,355.1z M412.1,361.1c0.7,0,1.1,0.7,1.1,1.9c0,1.7-0.7,3.5-3.9,4.1
			C409.7,363.1,411.3,361.1,412.1,361.1z"/>
		<path fill="#FFFFFF" d="M552.2,338.9c-5.1,0-7.4,2.8-7.4,5.4c0,0.7,0.2,1.4,0.7,1.9c5.4,0.3,9,3.7,9,10.4c0,9.3-3.5,18.2-5.9,18.2
			c-1.1,0-1.7-0.6-1.7-2.5c0-4.1,1.8-10.1,6-12.8c0.1-0.2,0.1-0.5,0.1-0.7c0-1.5-0.9-2.5-2.6-2.5c-3.9,0-9.6,6.1-11.1,13
			c-3.2,3.7-7.2,6-10.5,6c-2.2,0-2.8-1.4-2.8-4c7.9-1.8,10.7-5.5,10.7-10.3c0-4-2.2-5.9-6.1-5.9c-5.1,0-11.3,7.3-12.4,15.1
			c-2.6,3.2-5.3,5.4-6.6,5.4c-0.7,0-1-0.6-1-1.4c0-1.4,1.1-4.2,2.5-6.9c0.9-1.8,1.5-3.2,1.5-4.4c0-1.4-0.7-2.2-4.1-3.2
			c-1-0.3-2.1-0.7-2.7-1c0.7-1.3,1.9-2.1,3.3-2.9c0.1-0.3,0.2-0.7,0.2-1.1c0-1.5-1.3-2.5-3.3-2.5c-3.2,0-9.2,5.7-9.2,9.7
			c0,1.1,0.4,1.8,0.9,2.3c-0.6,1.5-1.3,2.6-2.1,3.8c-3.3,4.4-7.8,7.2-11.4,7.2c-2.2,0-2.8-1.4-2.8-4c7.9-1.8,10.7-5.5,10.7-10.3
			c0-4-2.2-5.9-6.1-5.9c-5.6,0-12.6,8.8-12.6,17.5c0,6.2,2.6,9.7,8.2,9.7c5.7,0,12.5-5.2,15.5-9.6c1.4-1.7,2.5-3.5,3.9-6.3
			c1.3,0.5,1.9,0.9,1.9,1.5c0,1.5-2.8,6.4-2.8,10.1c0,3.3,1.9,4.8,5.4,4.8c3,0,7.4-3.3,10.7-6.8c0.9,4,3.4,6.2,7.8,6.2
			c4.4,0,9.4-3.1,12.9-6.6c0.8,4.4,3.5,6.6,7.3,6.6c7.3,0,16.6-11.5,16.6-29.3C562.9,344.3,558.6,338.9,552.2,338.9z M529.1,361.1
			c0.7,0,1.1,0.7,1.1,1.9c0,1.7-0.7,3.5-3.9,4.1C526.8,363.1,528.3,361.1,529.1,361.1z M486.6,361.1c0.7,0,1.1,0.7,1.1,1.9
			c0,1.7-0.7,3.5-3.9,4.1C484.2,363.1,485.8,361.1,486.6,361.1z"/>
		<path fill="#FFFFFF" d="M569.7,372.2c-3.2,0-6.1,1.9-6.1,4.8c0,3,1.9,5.7,4.6,5.7c3.1,0,5.4-4.7,5.4-8
			C573.7,373.3,572.3,372.2,569.7,372.2z"/>
	</g>
</g>
</svg>

